<svg id="Outline" height="512" viewBox="0 0 512 512" width="512" xmlns="http://www.w3.org/2000/svg"><path d="m376 128a88 88 0 1 0 88 88 88.1 88.1 0 0 0 -88-88zm0 160a72 72 0 1 1 72-72 72.081 72.081 0 0 1 -72 72z"/><path d="m496 216a120 120 0 1 0 -155.851 114.529 23.979 23.979 0 0 0 11.851 36.095v105.376a24 24 0 0 0 48 0v-105.376a23.979 23.979 0 0 0 11.851-36.1 120.215 120.215 0 0 0 84.149-114.524zm-112 152v80h-16v-80zm-8 112a8.009 8.009 0 0 1 -8-8v-8h16v8a8.009 8.009 0 0 1 -8 8zm16-144a8 8 0 0 1 0 16h-32a8 8 0 0 1 0-16zm-16-16a104 104 0 1 1 104-104 104.118 104.118 0 0 1 -104 104z"/><path d="m32 32h44.687l29.656 29.657a8 8 0 0 0 5.657 2.343h208v24h16v-64a8 8 0 0 0 -8-8h-304a8 8 0 0 0 -8 8v432a8 8 0 0 0 8 8h88v-16h-80zm67.314 0h41.372l16 16h-41.373zm64 0h33.372l16 16h-33.372zm156.686 16h-84.686l-16-16h100.686z"/><path d="m148.527 470.375-71.75-303.638 225.783-53.353-3.68-15.571-233.568 55.193a8 8 0 0 0 -5.945 9.625l75.433 319.209a8 8 0 0 0 9.625 5.945l193.415-45.705-3.68-15.57z"/><path d="m146.766 280.054h16v15.999h-16z" transform="matrix(.973 -.23 .23 .973 -62.098 43.314)"/><path d="m177.161 266.279h71.801v15.999h-71.801z" transform="matrix(.973 -.23 .23 .973 -57.37 56.355)"/><path d="m137.044 301.919h128.68v15.999h-128.68z" transform="matrix(.973 -.23 .23 .973 -65.88 54.625)"/><path d="m144.174 331.096h145.779v15.999h-145.779z" transform="matrix(.973 -.23 .23 .973 -72.17 59.013)"/><path d="m151.128 358.763h176v15.999h-176z" transform="matrix(.973 -.23 .23 .973 -77.935 64.822)"/><path d="m158.916 393.585h144v15.999h-144z" transform="matrix(.973 -.23 .23 .973 -86.16 63.864)"/><path d="m242.6 152.215-129.159 30.52a8 8 0 0 0 -5.945 9.625l14.718 62.285a7.987 7.987 0 0 0 9.625 5.945l110-25.993-3.68-15.571-102.216 24.154-11.043-46.713 121.373-28.682z"/></svg>