<svg id="Capa_1" enable-background="new 0 0 512 512" height="512" viewBox="0 0 512 512" width="512" xmlns="http://www.w3.org/2000/svg"><g><path d="m131.909 359.569h-34.523c-19.067 0-34.523-15.456-34.523-34.523v-34.523c0-19.066 15.456-34.523 34.523-34.523h34.523z" fill="#febf85"/><path d="m380.091 359.569h34.523c19.066 0 34.523-15.456 34.523-34.523v-34.523c0-19.066-15.456-34.523-34.523-34.523h-34.523z" fill="#e3a477"/><path d="m394.09 223.1v150.81c0 38.13-15.45 72.65-40.44 97.64s-59.51 40.45-97.65 40.45c-76.27 0-138.09-61.83-138.09-138.09v-150.81z" fill="#fed9b6"/><path d="m394.09 223.1v150.81c0 38.13-15.45 72.65-40.44 97.64s-59.51 40.45-97.65 40.45v-288.9z" fill="#febf85"/><path d="m394.09 172.92v48.54c0 28.62-23.2 51.82-51.82 51.82h-172.54c-28.62 0-51.82-23.2-51.82-51.82v-48.54z" fill="#2a4979"/><path d="m394.09 172.92v48.54c0 28.62-23.2 51.82-51.82 51.82h-86.27v-100.36z" fill="#202a58"/><path d="m443.79 100.02c0 28.95-49.7 86.97-49.7 86.97h-276.18s-49.7-58.02-49.7-86.97c0-22.6 14.49-42.66 35.94-49.77l151.85-50.25 151.85 50.25c21.45 7.11 35.94 27.17 35.94 49.77z" fill="#506da4"/><path d="m443.79 100.02c0 28.95-49.7 86.97-49.7 86.97h-138.09v-186.99l151.85 50.25c21.45 7.11 35.94 27.17 35.94 49.77z" fill="#2a4979"/><path d="m297.04 104.78c0 22.67-18.37 41.04-41.04 41.04s-41.04-18.37-41.04-41.04 18.37-41.05 41.04-41.05 41.04 18.38 41.04 41.05z" fill="#feb556"/><path d="m297.04 104.78c0 22.67-18.37 41.04-41.04 41.04v-82.09c22.67 0 41.04 18.38 41.04 41.05z" fill="#fd9126"/></g></svg>